<svg version="1.1" id="Livello_1" xmlns="http://www.w3.org/2000/svg" xmlns:xlink="http://www.w3.org/1999/xlink" x="0px" y="0px" viewBox="0 0 80 80" style="enable-background:new 0 0 80 80;" xml:space="preserve">
<g id="Homepage">
<g id="Artboard-Copy-7" transform="translate(-183.000000, -1414.000000)">
<g id="disney" transform="translate(183.000000, 1414.000000)">
<path class="testimonial" d="M32.9,48c0,0.1,0,0.3,0,0.4c-0.1,1.3-0.1,2.6-0.2,3.9c-0.1,1.1-0.2,2.1-0.3,3.2c0,0.3-0.1,0.7-0.1,1.1
				c-2.5-1-4.9-2.2-7.1-3.7c-1.7-1.2-3.3-2.6-4.6-4.2c-0.7-0.8-0.4-1.5,0.4-1.9c1.1-0.5,2.4-0.8,3.6-1.1c1.2-0.3,2.5-0.5,3.8-0.6
				c0.8-0.1,1.6-0.1,2.4-0.2c0.8-0.1,1.5-0.1,2.3-0.2C33,45.8,32.9,46.9,32.9,48z M71,46.9c0-0.7-0.2-1.5-0.3-2.2
				c-0.5-2-1.3-3.9-2.4-5.7c-1.2-2-2.6-3.8-4.1-5.5c-0.8-0.9-1.7-1.7-2.5-2.5c-0.2-0.2-0.5-0.5-0.8-0.7c-1.2-0.9-2.3-1.9-3.5-2.7
				c-2.1-1.4-4.2-2.8-6.5-4.1c-2.1-1.2-4.3-2.2-6.5-3.1c-2.2-0.9-4.6-1.7-6.9-2.4c-1.5-0.5-3-0.8-4.6-1.1c-1.2-0.3-2.5-0.5-3.7-0.6
				c-1.4-0.2-2.8-0.3-4.1-0.4c-1.5,0-3,0-4.5,0.1c-0.4,0-0.8,0-1.2,0.1c-0.5,0-1,0.1-1.5,0.2c-1.5,0.3-3.1,0.7-4.6,1.1
				c-0.5,0.1-1.9,0.6-2.6,1.9c-0.2,0.3-0.4,0.8-0.5,1.4c-0.2,1.1,0.6,2.1,1.6,2.3c0,0,0,0,0,0c0.9,0.1,1.8,0.1,2.7,0.2
				c0.3,0,0.7,0,0.9-0.2c0.2-0.1,0.5-0.4,0.5-0.6c0-0.1-0.2-0.4-0.4-0.5c-0.5-0.3-1.1-0.4-1.6-0.6c-0.2-0.1-0.3-0.1-0.5-0.1
				c-0.1,0-0.1-0.1-0.1-0.2v0c0-0.1,0-0.1,0.1-0.2c0.2-0.1,0.3-0.2,0.5-0.2c1.2-0.2,2.5-0.5,3.7-0.6c0.3,0,0.6-0.1,0.9-0.1
				c2.3-0.1,4.6-0.1,6.9,0.2c1.3,0.2,2.6,0.3,3.9,0.6c2.4,0.5,4.7,1.1,7,1.8c1.8,0.5,3.6,1.2,5.3,2c2.5,1.1,4.9,2.3,7.2,3.6
				c2,1.2,4,2.5,5.9,3.9c1.4,1,2.7,2.1,3.9,3.3c0.8,0.8,1.6,1.7,2.3,2.5c1.4,1.6,2.5,3.3,3.2,5.2c0.8,2,1.1,4.1,0.7,6.3
				c-0.5,2.3-1.7,4.2-3.5,5.6c-1.4,1.1-3,2-4.8,2.5c-1.5,0.5-3,0.8-4.6,1.2c-1.3,0.3-2.5,0.5-3.8,0.5c-1.6,0.1-3.2,0-4.7-0.2
				c-1.6-0.1-3.1-0.5-4.7-0.7c-0.4,0-0.4-0.2-0.4-0.5c0-2,0.1-4,0.1-6c0-2.3,0.1-4.6,0.1-7c0-0.1,0-0.2,0-0.3
				c0.8,0.1,1.6,0.1,2.3,0.2c1.1,0.1,2.1,0.1,3.2,0.3c1.6,0.2,3.2,0.5,4.8,0.9c1.2,0.3,2.3,0.6,3.3,1.3c0.8,0.6,0.6,1.1,0,1.6
				c-0.2,0.2-0.5,0.3-0.8,0.4c-0.5,0.2-1,0.4-1.4,0.7c-0.5,0.3-0.6,0.7,0,1c1.5,0.8,3,1.2,4.7,0.3c2.7-1.6,3.4-5,1.1-7.3
				c-1.2-1.2-2.7-2-4.3-2.6c-1.7-0.6-3.5-0.9-5.2-1.3c-2.3-0.4-4.6-0.7-6.9-0.7c-0.1,0-0.3,0-0.4,0c0-0.7-0.1-1.4-0.1-2.1
				c0-0.7,0-1.4-0.1-2.1c-0.1-1-0.2-1.9-0.4-2.9c-0.2-1.2-0.9-2-1.6-2.9c-0.5-0.6-1.2-0.7-1.6,0.2c-0.1,0.2-0.2,0.4-0.3,0.7
				c-0.3,1.3-0.6,2.6-0.9,3.9c-0.2,1.2-0.3,2.5-0.5,3.8c-0.1,0.5-0.1,1-0.2,1.5c0,0.1-0.2,0.3-0.3,0.3c-1,0.2-2,0.3-3,0.5
				c-2.8,0.6-5.5,1.4-8.1,2.8c-1,0.5-2,1.2-2.7,2.1c-0.8,1.2-1,2.4-0.4,3.7c0.7,1.4,1.8,2.6,2.9,3.8c0.7,0.7,1.4,1.4,2.1,2
				c1.1,0.9,2.2,1.9,3.4,2.7c1.6,1,3.2,1.9,4.8,2.9c0.1,0.1,0.3,0.3,0.3,0.4c0.1,0.9,0.2,1.8,0.4,2.6c0.1,0.7,0.4,1.5,1,2
				c0.8,0.7,1.8,0.7,2.7,0.3c0.6-0.2,1.2-0.4,1.4-1.1c0.1-0.5,0.2-0.9,0.2-1.4c0-0.4,0.1-0.5,0.5-0.4c2.3,0.7,4.8,1,7.2,1.2
				c1.3,0.1,2.5,0,3.8,0c1.9,0,3.7-0.3,5.5-0.6c2.3-0.5,4.6-1.2,6.7-2.2c1.5-0.7,2.9-1.6,4.2-2.7c1.2-1.1,2.3-2.3,3.1-3.7
				C70.4,52.4,71.2,49.7,71,46.9z"></path>
</g>
</g>
</g>
</svg>