<svg version="1.1" id="Livello_1" xmlns="http://www.w3.org/2000/svg" xmlns:xlink="http://www.w3.org/1999/xlink" x="0px" y="0px" viewBox="0 0 85.1 80" style="enable-background:new 0 0 85.1 80;" xml:space="preserve">
<desc>Created with Sketch.</desc>
<path id="logo_1_" class="testimonial" d="M41.9,51.3c0.1,0.4,0.2,0.6,0.5,1c-1.1,0.6-2.2,1.4-3.2,2.1c-0.2-0.7,0.1-1.5,0.4-2.2
	c0-0.1,0.1-0.2,0.1-0.4l0,0c0.1,0,0.4,0,0.4,0c0.2,0,0.5-0.1,0.5-0.4v-0.1c0-0.4,0.2-1.7,0.4-2.2c0.2,0.5,0.5,1.1,0.6,1.4l0,0
	C41.6,50.8,41.7,51.1,41.9,51.3z M31.9,39.2L31.9,39.2c0.9,1.1,1.7,2.4,2.4,3.6l0,0c0-0.1,0.1-0.1,0.1-0.2c0.1,0,0.1,0,0.1,0.1
	s0.1,0.2,0.1,0.2c0.1,0.1,0.1,0.2,0.2,0.2c0.1,0,0.2,0.1,0.4,0.1l0.4,0.1c0.2,0,0.4,0.1,0.6,0.4c0.1,0.1,0.1,0.2,0.2,0.4
	c0.1,0.1,0.2,0.2,0.4,0.2c0.6,0.4,1.4,0.5,2.1,0.5c0.4-0.6,1-1,1.7-1c0.5,0,1,0.2,1.4,0.6c1.1-0.2,2.1-0.9,2.9-1.6
	c0.1-0.1,0.2-0.2,0.5-0.5L45,41.8c-0.2,0-0.4,0-0.6,0c-0.2,0-0.4,0-0.6-0.1c-0.1-0.1-0.2-0.2-0.4-0.4c0-0.1,0-0.2,0-0.2
	c0-0.1-0.1-0.1-0.2-0.2c0,0,0-0.1,0-0.2l0.1-0.1l0,0c-0.1,0-0.1-0.1-0.1-0.2c0-0.1,0.1-0.1,0.1-0.2l-0.1-0.1C43.1,40,43,40,43,39.9
	c0-0.2,0.4-0.4,0.5-0.6c0.1-0.1,0.1-0.2,0.1-0.4s-0.1-0.4-0.1-0.5s0-0.2,0-0.2c-0.1,0.1-0.2,0.2-0.5,0.2c0.2-0.2,0.2-0.5,0.2-0.7
	s0.1-0.5,0.4-0.7c-0.2-0.1-0.5,0.2-0.5,0.1c0-0.5,0.4-0.9,0.9-0.9h0.1c-0.2-0.1-0.4-0.4-0.4-0.7c0.1,0.1,0.2,0.2,0.4,0.2
	c0.1,0,0.4,0.1,0.5,0.1s0.4,0,0.5,0c0.2,0,0.5-0.1,0.7-0.1c0.7-0.2,1.5-0.1,2.1,0.2c-0.1-0.1-0.1-0.2-0.1-0.5c0,0.1,0.1,0.2,0.2,0.4
	c0.2,0.2,0.6,0.5,0.9,0.6c0.2,0.2,0.4,0.5,0.5,0.7c0.2,0,0.6,0.1,0.6,0.4c-0.4-0.2-0.4,0.5-0.4,0.6c0,0.4,0,0.6-0.1,1
	c-0.2,0.7-0.6,1.4-1.4,1.7c-0.1,0.1-0.2,0.1-0.4,0.4v0.1c0.1,0,0.1-0.1,0.2-0.1c0.1,0,0.6-0.1,0.6,0.1c0,0.1,0.1,0.4,0.1,0.5
	c0,0,0.1,0.1,0.2,0.4c0.1,0.1,0.1,0.1,0.2,0.2c0.2,0.2,0.4,0.5,0.5,0.7c0.2,0.4,0.4,0.7,0.5,1.2c0.1,0.6,0.2,1.1,0.4,1.7
	c0,0.5,0.1,0.9,0.1,1.4c0,0.2,0,0.4,0,0.6c1.1-1.2,2-2.6,2.7-4.1c1.4-2.7,2-5.7,2-8.9c0.1-11.7-8.9-22.1-23.1-19.6
	c-2.6,0.5-5.1,1.4-7.4,2.7c-2.5,1.4-4.5,3.4-6.1,5.6c-0.9,1.2-1.5,2.5-2.2,3.7c2.6,1.2,5,2.6,7.4,4.4C27.4,34.2,29.8,36.6,31.9,39.2
	z M36.1,45.8L36.1,45.8h-0.2c0.1,0.2,0.2,0.5,0.4,0.7c0-0.1,0-0.1,0.1-0.1c0.2-0.1,0.5,0,0.6,0.1c0.5,0.4,1,0.5,1.6,0.4
	c0-0.2,0.1-0.5,0.1-0.6c-0.2-0.1-0.5-0.1-0.7-0.2c-0.2-0.1-0.6-0.2-0.9-0.2C36.6,45.8,36.4,45.8,36.1,45.8z M42.5,68.2L42.5,68.2
	c15.5,0,28.1-12.6,28.1-28.1S58,11.9,42.5,11.8c-5.9,0-11.7,1.9-16.5,5.4c0,0,0,0,0.1,0c1.4-0.9,2.7-1.5,4.1-2.1
	c0.4-0.1,0.9-0.4,1.2-0.5c4.2-1.5,8.9-2,13.4-1.1c1.7,0.2,3.5,0.7,5.1,1.5c4.7,2,9,5.5,11.5,10c2.7,5,3.6,11.1,2.1,16.6
	c-0.9,3.2-2.5,6.2-4.7,8.7c-2.2,2.6-5.1,4.7-8.2,6.2c-3,1.5-6.5,2.4-10.1,2.4c-0.1,0.2-0.2,0.6-0.2,1c0,0.1,0,0.1-0.1,0.2
	c-0.1,0.2-0.4,0.2-0.6,0.2c-0.1,0-0.2,0-0.4,0c-0.2,0.2-0.5,0.6-0.6,1l0,0c-0.2,0.6-0.4,0.9-0.2,1.4c0.1,0.1,0.1,0.4,0.1,0.5
	s-0.1,0.4-0.2,0.5c-0.1,0.1-0.4,0.1-0.5,0.1c-0.4,0-0.7,0-1.1,0.2c-0.4,0.2-0.9,0.4-1.2,0.6c-0.4,0.1-0.9,0.1-1.4,0
	c-0.1,0-0.1-0.1-0.2-0.1c-0.1,0-0.1,0-0.2,0c-0.2,0-0.4-0.1-0.5-0.4c0-0.1,0-0.2,0-0.4c0.1-0.1,0.1-0.1,0.2-0.1c0.1,0,0.1,0,0.2,0
	c0.1,0,0.2,0,0.5-0.1s0.5-0.2,0.7-0.5c0.2-0.2,0.5-0.4,0.7-0.6c0.2-0.2,0.4-0.4,0.5-0.4c0.4-0.4,0.7-0.7,0.9-1.2
	c0.1-0.4,0.2-0.7,0.4-1.1H37c-0.1-0.1-0.4-0.2-0.4-0.5c0-0.1,0.1-0.2,0.1-0.5c-5.7-0.7-9.2-3.4-9.1-3.4c1.9,0.5,3.9,0.6,5.9,0.6
	l-0.1-0.1c0-0.1,0-0.1,0-0.2c0-0.1,0-0.1,0.1-0.2l0,0h0.1c0.1,0,0.4,0,0.5,0s0.2,0,0.4,0h0.2l0.7-0.1c0.1,0,0.2-0.1,0.2-0.1
	c0.2-0.1,0.5-0.2,0.6-0.5c0.4-0.2,0.6-0.6,0.9-1v-0.1c0.2-0.5,0.4-1.1,0.5-1.6l0.1-0.4l0,0c-0.2-0.1-0.5-0.4-0.4-0.6
	c0.1-0.2,0.1-0.2,0.1-0.4c0.1-0.2,0.1-0.6,0.2-0.9l0.2-1c-0.1,0-0.2,0-0.4,0.1s-0.6,0.4-0.9,0.5c0.1,0.2,0.1,0.5,0.2,0.7
	c0,0.1,0,0.2,0,0.2c0,0.1-0.1,0.1-0.2,0.2h-0.1c-0.1,0-0.4-0.1-0.4-0.2c-0.1-0.4-0.1-0.6-0.2-1l0.2-0.1c-0.2,0-0.4-0.1-0.5-0.4
	c-0.2-0.1-0.4-0.2-0.4-0.5c-0.1,0-0.1-0.1-0.2-0.2c-0.1-0.2,0.1-0.5,0.4-0.6h0.1c-0.1-0.4-0.2-0.7-0.5-1.1c-0.4-0.1-0.4-0.2-0.4-0.2
	c-0.2-0.4-0.2-0.7-0.2-0.7c-0.4,0-0.4-0.5-0.4-0.5c-0.1,0-0.2-0.2-0.2-0.4s0.1-0.1,0.2-0.2c0.1,0,0.1-0.1,0.2-0.1
	c-0.7-1.5-1.7-2.9-2.7-4.2c-2.1-2.6-4.5-5-7.1-7c-2.2-1.7-4.6-3.1-7.2-4.4c-1.6,3.6-2.5,7.4-2.5,11.4c0,0.1,0,0.2,0,0.2
	C14.4,55.6,27,68.2,42.5,68.2z M45.6,46.6c-0.5,0.2-1,0.4-1.6,0.5c0.5,0.7,1.1,1.5,1.7,2.2l0.4,0.4c0-0.4,0.1-0.7,0.1-1
	C46.2,47.9,46.1,47.2,45.6,46.6L45.6,46.6L45.6,46.6z"></path>
</svg>