<svg version="1.1" id="Livello_1" xmlns="http://www.w3.org/2000/svg" xmlns:xlink="http://www.w3.org/1999/xlink" x="0px" y="0px" viewBox="0 0 85.1 80" style="enable-background:new 0 0 85.1 80;" xml:space="preserve">
<g>
<path class="testimonial" d="M63.6,31.5c-0.2,0-0.4,0.1-0.6,0.3l-0.6,0.5c-0.2,0.3-0.5,0.7-0.7,1.2c-0.4,0.6-0.5,1.2-0.5,1.9
		c0,0.4,0.1,0.7,0.2,0.9c0,0,0,0,0.1,0s0.3,0,0.5-0.1c0.3-0.1,0.5-0.4,0.9-0.8c0.5-0.6,0.8-1.3,1-2.1c0.1-0.5,0.2-0.9,0.1-1.2
		C64,31.7,63.9,31.5,63.6,31.5z"></path>
<path class="testimonial" d="M64.9,36.9c2.7-2.3,2.2-4.6,2.2-4.6c-0.4-2.7-2.9-2.1-2.9-2.1c-0.4-4-1.7-16.9-1.7-17.8
		c-0.1-0.9-0.9-0.5-0.9-0.5c-21.7,7.6-44.2,9.9-44.2,9.9c-1.1,0.1-0.6,0.9-0.6,1c1.8,4,3.2,12.5,3.2,12.5c-3.1,0.8-4.1,2.1-4.1,2.1
		c-1.4,1.9,1.1,2.4,1.1,2.4c1.5,0.3,3.6-0.5,3.6-0.5c3.5,21,2.4,26.9,2.4,26.9c-0.1,1.1,0.7,0.7,0.7,0.7c22.3-8.1,44.4-10,44.4-10
		c0.8-0.1,0.5-1,0.5-1C66.2,47.9,64.9,36.9,64.9,36.9z M44.6,27.7c0.5-0.2,1.2-0.5,2.2-0.6c0.7-0.1,1.1,0.1,1.3,0.6
		c0,0.1,0,0.1,0,0.2s0,0.3,0,0.4l0.2,0.8c0.1,0.5,0.3,1.7,0.5,3.7l0.1,0.1c0.1-0.1,0.2-0.2,0.3-0.3c0.3-0.2,0.7-0.4,1.1-0.5
		c0.8-0.3,1.5-0.3,2.1-0.1c0.4,0.2,0.7,0.4,0.9,0.8c0.1,0.3,0.1,0.6,0,1c-0.2,0.8-0.7,1.6-1.5,2.5s-1.6,1.6-2.4,2.1
		c-0.9,0.5-1.4,0.7-1.9,0.6c-0.1,0-0.1,0-0.2-0.1c-0.2-0.1-0.3-0.4-0.3-0.8c-0.1-3.6-0.6-6.6-1.5-9.1c-0.1-0.2-0.1-0.3-0.2-0.4
		c0-0.1-0.1-0.2-0.2-0.3c-0.1-0.2-0.3-0.3-0.5-0.4C44.5,27.8,44.5,27.8,44.6,27.7z M41.8,33c1-0.9,2-1.4,2.8-1.6
		c0.7-0.2,1.2,0.1,1.4,0.7c0,0.1,0.1,0.2,0.1,0.4v0.3h-0.2c-0.6,0.1-1.1,0.2-1.5,0.4c-1.4,0.6-2.1,1.1-2.2,1.8c0,0.2,0,0.4,0,0.6
		c0.1,0.2,0.2,0.3,0.4,0.4l0.1,0.1c0.3,0.1,1.1,0.3,2.4,0.6c0.8,0.2,1.2,0.5,1.3,0.9v0.1c0.3,0.9-0.1,1.9-1.2,3.1
		c-0.8,0.9-1.4,1.5-2.1,1.8c-0.5,0.3-1,0.5-1.7,0.7c-0.8,0.2-1.3-0.2-2-1l-0.1-0.1l-0.2-0.3C39,41.7,39,41.5,39,41.5
		c0-0.1,0.1-0.1,0.2-0.1h0.2c0.1,0.1,0.1,0.1,0.3,0.1c0.6,0.2,1.2,0.2,1.8-0.2s1.1-0.9,1.6-1.4l0.6-0.8l0.3-0.5
		c0-0.2,0.1-0.3,0.1-0.5c0-0.1,0-0.2-0.1-0.3c-0.2-0.3-0.7-0.5-1.4-0.6h0.1c-0.4-0.1-0.9-0.2-1.5-0.3c-0.2,0-0.4-0.1-0.6-0.2
		c-0.1-0.1-0.2-0.2-0.3-0.4C39.9,35.2,40.4,34.1,41.8,33z M30.2,41.7c-0.2,0-0.3,0-0.5-0.1c-0.1-0.1-0.2-0.3-0.3-0.5l-0.3-1.3
		l-0.5-3.1l-0.1-0.8l-2.9,0.7l0.8,5.2v0.3c0,0.3-0.5,0.5-1.6,0.6L24,42.8l-0.2-0.1l-0.1-0.1c-0.1-0.1-0.3-0.4-0.4-1.1l-0.5-3.4
		l-0.1-0.7l-2.6,0.7c-1.3,0.4-2.4,0.6-3.1,0.5c0,0-0.2,0-0.4,0c-0.2-0.1-0.3-0.2-0.2-0.5c-0.1-0.6,0.6-1,0.6-1
		c1.2-0.8,3-1.4,5.5-2.1h0.1c-0.1-1.2-0.4-2.4-0.6-3.8c0-0.1,0-0.2-0.1-0.3c-0.1-0.3-0.2-0.4-0.3-0.5c-0.1-0.1-0.1-0.1-0.2-0.1h-0.1
		l-0.1-0.1c-0.1-0.1,0-0.2,0.1-0.3c0.5-0.4,1.1-0.7,1.8-1c0.6-0.2,1.1-0.3,1.4-0.3s0.5,0.2,0.5,0.7v0.1l0.2,2.5
		c0.1,1.1,0.2,2.3,0.4,3.6l0.2-0.1l2.7-0.7l-0.4-4.5c0-0.3,0-0.5,0-0.7c0-0.1,0-0.1,0-0.2c0-0.2-0.1-0.3-0.1-0.4l-0.1-0.2l-0.1-0.1
		c-0.1-0.1,0-0.1,0.1-0.2c0.5-0.3,1.2-0.5,1.9-0.6c0.3-0.1,0.6,0,0.7,0.1c0.2,0.1,0.2,0.3,0.2,0.5c0,0.1,0,0.1,0,0.2
		c-0.1,0.7-0.1,1.8-0.1,3.4l0.1,2.2c0.1,0,0.2,0,0.4-0.1c2.5-0.5,4.6-0.7,6.1-0.8h1c0.1,0,0.2,0.1,0.2,0.2s0,0.2-0.1,0.2
		c-0.3,0.1-0.6,0.2-0.8,0.4c-0.1,0.1-0.2,0.1-0.3,0.2c-1.2,0.9-2,1.9-2.5,3.1c-0.2,0.6-0.3,1-0.3,1.4c0.1,0.3,0.2,0.4,0.5,0.3
		c0.1-0.1,0.3-0.2,0.5-0.4c0.8-0.8,1.5-1.9,1.9-3.3c0,0,0,0,0-0.1c0.1-0.3,0.2-0.5,0.3-0.6s0.3-0.2,0.6-0.4c0.1-0.1,0.3-0.1,0.4-0.2
		c0.2-0.1,0.3-0.1,0.5-0.2c0.4-0.1,0.6,0,0.6,0.4l-0.1,0.4l-0.1,0.8c-0.2,0.9-0.2,1.6-0.2,2.1c0,0.6,0.2,1.1,0.5,1.4
		c0.1,0.1,0.2,0.2,0.3,0.2c0.1,0.1,0.1,0.1,0.1,0.2c0,0.1,0,0.1-0.1,0.1H40c-1.4,0.4-2.3-0.1-2.8-1.3c-0.5,0.7-1.1,1.2-1.7,1.5
		c-0.1,0.1-0.2,0.1-0.3,0.2l0,0h-0.1c-0.2,0.1-0.4,0.1-0.6,0.2c-0.4,0.1-0.8,0.1-1.2-0.1c-0.2-0.1-0.3-0.2-0.5-0.4
		c-0.1-0.1-0.2-0.3-0.3-0.5c-0.4-0.9-0.1-1.9,0.8-3.1c0.2-0.3,0.5-0.6,0.8-1l-3.3,0.5c0.3,2.1,0.6,3.8,1.1,5.2L32,41
		c0,0.1,0,0.2-0.1,0.3C31.5,41.5,31,41.6,30.2,41.7z M53.6,47.3c-0.5,2-1.5,3.5-2.9,4.7c-1.4,1.1-3,1.8-4.9,2.1
		c-1.8,0.2-3.7,0.1-5.6-0.4c-3.5-1-5.9-2.5-7.2-4.5c-0.7-1-1-2.2-1.1-3.4c-0.1-0.1-0.1-0.2,0-0.2H32c3,1,6.4,1,10.2,0
		c2.4-0.7,4.5-1.7,6.3-2.9c1.4-1,2.6-2.2,3.8-3.7l0.4-0.3c0-0.1,0.1-0.1,0.2-0.1c0.1,0,0.1,0.1,0,0.3c-0.3,0.7-0.9,1.4-1.6,2.3
		c-0.4,0.4-0.8,0.9-1.2,1.3c-1.7,1.6-3.7,2.8-5.8,3.7c-1.9,0.8-4,1.2-6.3,1.4c-1.2,0.1-2.3,0.1-3.2,0c0.1,0.3,0.2,0.6,0.5,1l0,0
		c0.4,0.7,1.1,1.3,2,1.9c1.1,0.8,2.3,1.4,3.7,1.8c2.5,0.7,5,0.6,7.4-0.4c2.5-1,4.1-2.9,4.7-5.8c0.2-1.1,0.3-2.3,0.3-3.5
		c-0.1-0.9-0.2-1.7-0.3-2.5c0-0.1,0-0.2-0.1-0.3c0-0.2,0-0.3,0.2-0.3c0,0,0.1,0,0.1,0.1v0.1l0.1,0.2c0,0.1,0,0.2,0.1,0.3
		C54.1,42.9,54.1,45.3,53.6,47.3z M57.2,36.9v0.4c0,0.3-0.3,0.5-0.9,0.6l-1.5,0.2c0,0,0,0-0.1,0c-0.4,0-0.5-0.2-0.3-0.7
		c0.4-1.5,0.6-2.7,0.6-3.8c0-0.1,0-0.2,0-0.3c0-0.3-0.2-0.5-0.5-0.7c0,0-0.1,0-0.1-0.1c-0.1,0-0.3-0.1-0.6-0.1
		c-0.1,0-0.2-0.1-0.1-0.2c0-0.1,0.2-0.2,0.4-0.3c0.3-0.2,0.6-0.3,0.8-0.3c0.8,0,1.3,0.2,1.7,0.9c1.1-1.5,2.2-2.3,3.4-2.3
		c0.6,0,0.9,0.2,0.9,0.6v0.1c0,0.3,0,0.5-0.2,0.7c-0.2,0.3-0.4,0.5-0.6,0.6c0,0-0.1,0-0.2-0.1c-0.3-0.3-0.6-0.4-0.9-0.3
		c-0.8,0.2-1.5,0.8-2,1.8v0.1C57.1,34.6,57.2,35.6,57.2,36.9z M61,37.2c-0.7,0.1-1.2,0-1.6-0.2c-0.3-0.2-0.5-0.6-0.5-1.1
		c-0.1-0.3,0-0.8,0.1-1.2c0.1-0.5,0.3-0.8,0.5-1.1c0.2-0.4,0.4-0.7,0.7-1c0.3-0.4,0.7-0.8,1.1-1.1c0.7-0.5,1.5-0.9,2.4-1.1
		c0.8-0.2,1.5-0.1,1.9,0.2c0,0,0.4,0.2,0.6,0.8c0,0.1,0.1,0.1,0.1,0.2c0.2,0.9-0.3,2-0.3,2L65.8,34C64.6,35.9,63,37,61,37.2z"></path>
<path class="testimonial" d="M18.8,35.4C16.7,26.3,14.5,22,14.5,22c-2,0.4-1.1,1.2-1.1,1.2c2.5,3.9,5,12.3,5,12.3L18.8,35.4z"></path>
<path class="testimonial" d="M62.1,8.8C62,8,61.2,8.4,61.2,8.4c-12.7,5.6-22.1,8.2-22.1,8.2c17.3-4.3,23.2-6.9,23.1-6.9L62.1,8.8z"></path>
<path class="testimonial" d="M22.6,68.7v1c-0.1,1,0.7,0.6,0.7,0.6c9-4.5,22.3-8.7,22.3-8.7C30.7,65.5,22.7,68.7,22.6,68.7L22.6,68.7z"></path>
<path class="testimonial" d="M71.4,55.7c0,0-3.6-7.8-5.9-17.9c0,0,1.8,10.5,4.9,19.2l0.7-0.2C71.1,56.8,71.9,56.6,71.4,55.7z"></path>
<path class="testimonial" d="M49.7,37.2c0.4-0.4,0.8-0.9,1-1.6c0.2-0.6,0.3-1.1,0.2-1.6c0-0.1-0.1-0.2-0.1-0.3c-0.3-0.5-0.9-0.5-1.8,0.2
		l0.4,3.5C49.5,37.3,49.6,37.2,49.7,37.2z"></path>
<path class="testimonial" d="M22.4,35.6v-0.3c-1.4,0.3-2.6,0.8-3.6,1.3c-0.3,0.2-0.5,0.3-0.5,0.4l0,0c0,0.2,0.2,0.2,0.6,0.1
		c0.2,0,0.4,0,0.7-0.1c0.6-0.1,1.6-0.4,2.9-0.7V36L22.4,35.6z"></path>
</g>
</svg>